<svg id="图层_1" data-name="图层 1" xmlns="http://www.w3.org/2000/svg" xmlns:xlink="http://www.w3.org/1999/xlink" viewBox="0 0 567.46 388.46"><defs><style>.cls-1{fill:url(#未命名的渐变_11);}.cls-2{fill:url(#未命名的渐变_11-2);}.cls-3{fill:url(#未命名的渐变_11-3);}.cls-4{fill:url(#未命名的渐变_11-4);}.cls-5{fill:url(#未命名的渐变_11-5);}.cls-6{fill:url(#未命名的渐变_11-6);}.cls-7{fill:url(#未命名的渐变_11-7);}.cls-8{fill:url(#未命名的渐变_11-8);}</style><linearGradient id="未命名的渐变_11" x1="119.68" y1="414.05" x2="91.32" y2="289.88" gradientUnits="userSpaceOnUse"><stop offset="0" stop-color="#008ad4"/><stop offset="1" stop-color="#00429a"/></linearGradient><linearGradient id="未命名的渐变_11-2" x1="261.21" y1="302.17" x2="129.47" y2="164.41" xlink:href="#未命名的渐变_11"/><linearGradient id="未命名的渐变_11-3" x1="299.99" y1="307.59" x2="402.86" y2="171.64" xlink:href="#未命名的渐变_11"/><linearGradient id="未命名的渐变_11-4" x1="232.16" y1="95.7" x2="295.92" y2="276.77" xlink:href="#未命名的渐变_11"/><linearGradient id="未命名的渐变_11-5" x1="208.06" y1="325.43" x2="68.92" y2="283.38" xlink:href="#未命名的渐变_11"/><linearGradient id="未命名的渐变_11-6" x1="499.43" y1="388.36" x2="377.16" y2="430.23" xlink:href="#未命名的渐变_11"/><linearGradient id="未命名的渐变_11-7" x1="38.15" y1="358.16" x2="581.37" y2="358.16" xlink:href="#未命名的渐变_11"/><linearGradient id="未命名的渐变_11-8" x1="349.55" y1="302.02" x2="558.61" y2="422.02" xlink:href="#未命名的渐变_11"/></defs><path class="cls-1" d="M128,270.4a115.26,115.26,0,0,0-65.41,8.1,80.68,80.68,0,0,0-48.06,83.63c1.4,11.34,4.52,22.5,10.61,30.95,19.5,27.05,72.66,56,127.4,27.68s52.21-45.29,52.21-45.29S129.24,405,127.35,340.24c0-47.75,53.13-41.19,62.1-13.79C186.72,304.78,171.3,277.62,128,270.4Z" transform="translate(-13.91 -86.09)"/><path class="cls-2" d="M147.93,149.88s-77.94,4-29.31,73.94A205.4,205.4,0,0,1,171,225.5c12.21,2.19,32.85,9.44,32.85,9.44,29.63,13,54,39.59,47.36,92.8C299.39,189.44,147.93,149.88,147.93,149.88Z" transform="translate(-13.91 -86.09)"/><path class="cls-3" d="M403.74,177.19s14.73-32.09-21-47.86c-11.2-5.55-28.57-7.17-28.57-7.17l-2.25,0,.07,0h2.18c-3.1-.38-6.3-.71-9.76-.93,0,0,10.89,94.68-93.26,206.51A455,455,0,0,1,294.12,289s43.47-33.86,81.25-49.49c1.14-.45,2.28-.92,3.43-1.35h0c1.94-.75,3.87-1.47,5.76-2.1,23.37-8,47.38-11.05,69.83-4.85C454.37,231.15,454.37,177.19,403.74,177.19Z" transform="translate(-13.91 -86.09)"/><path class="cls-4" d="M344.45,121.23s-4.52-12-20.9-22l-2.89-1.57h.18c-12.3-6.78-30.53-12.19-57.24-11.47C191,87.06,165,120.71,165,120.71c-14.8,15-17,29.17-17,29.17s151.46,39.56,103.26,177.86C355.34,215.91,344.45,121.23,344.45,121.23Z" transform="translate(-13.91 -86.09)"/><path class="cls-5" d="M211.65,285.5c-6.7-18.11-21.13-30.26-36.15-38.32A111,111,0,0,0,75,244.72c-27,13-55.17,39.54-59.56,93.23,0,0,44.58-78.87,112.52-67.55,43.32,7.22,58.74,34.38,61.47,56.05,1.9,5.79,1.76,12.52-1.2,19.85a18.13,18.13,0,0,1-3.65,7.15S228.64,331.43,211.65,285.5Z" transform="translate(-13.91 -86.09)"/><path class="cls-6" d="M535.4,361l-.83-.49c-1,1.64-2,3.27-3.15,4.88-31.83,44.39-113.9,3.35-113.9,3.35-26,78.72-84.58,69.51-84.58,69.51a375.33,375.33,0,0,0,44.48,20.38C483.49,483.48,535.4,361,535.4,361Z" transform="translate(-13.91 -86.09)"/><path class="cls-7" d="M522.19,260.5c-3.44-1.94-7.05-3.83-10.87-5.65-107.2-51.09-233.65,83.74-233.65,83.74l-62.81,59.46C113.52,486,38.15,424,38.15,424c76.21,90.44,175,38.52,226.12-18.43,11.73-13.08,24-26.12,36.8-38.6v-.41S423.84,221.41,522.19,260.5Z" transform="translate(-13.91 -86.09)"/><path class="cls-8" d="M534.57,360.51l.83.49s-51.91,122.48-158,97.63c145.22,54.88,193.36-49.69,193.36-49.69s44.39-95.8-48.59-148.44c-98.35-39.09-221.13,106.08-221.13,106.08V367c42.94-41.87,92-77.53,147.44-87.86C517.91,266.22,560.07,317.07,534.57,360.51Z" transform="translate(-13.91 -86.09)"/></svg>